# xmcd
#
# Track frame offsets:
#	150
#	18175
#	45100
#
# Disc length: 962 seconds
#
# Revision: 0
# Processed by: cddbd v1.5.2PL0 Copyright (c) Steve Scherf et al.
# Submitted via: audiograbber 1.83.01
#
DISCID=1103c003
DTITLE=Teena Marie - Since Day One (Single)
DYEAR=1990
DGENRE=Pop
TTITLE0=Since Day One (Single Version)
TTITLE1=Since Day One (Remix)
TTITLE2=Since Day One (LP Version)
EXTD=
EXTT0=
EXTT1=
EXTT2=
PLAYORDER=
